# xmcd
#
# Track frame offsets: 
#        150
#        11142
#        25747
#        41526
#        54657
#        70487
#        79516
#        93072
#        103021
#        117394
#        131586
#        146942
#        158427
#        170423
#        184970
#        199983
#        220362
#        232940
#        246588
#        262624
#        273809
#        285609
#        295824
#        306500
#        315903
#        328829
#        340461
#        348766
#        356693
#        368084
#        380520
#
# Disc length: 5239 seconds
#
# Revision: 0
# Processed by: cddbd v1.5.2PL0 Copyright (c) Steve Scherf et al.
# Submitted via: ExactAudioCopy v0.95b4
#
DISCID=d714751f
DTITLE=Christine Kittrell - Call Her Name
DYEAR=2010
DGENRE=Rhythm and Blues
TTITLE0=Call His Name
TTITLE1=Leave My Man Alone
TTITLE2=Don't Do It
TTITLE3=Old Man You're Slipping
TTITLE4=Sittin' Here Drinking
TTITLE5=It Ain't Nothin' But A Fool
TTITLE6=Heartache Blues
TTITLE7=You Ain't Nothin' But Trouble
TTITLE8=Slave To Love
TTITLE9=Gotta Stop Loving You
TTITLE10=I'll Help You Baby
TTITLE11=L and N Special
TTITLE12=Every Night In The Week
TTITLE13=Evil-Eyed Woman
TTITLE14=The Price You Pay For Love
TTITLE15=Snake In The Grass (alt.)
TTITLE16=Snake In The Grass
TTITLE17=Lord Have Mercy (I'm So Lonely)
TTITLE18=Sittin' Here Drinking Again
TTITLE19=Black Cat Crossed My Trail
TTITLE20=If You Ain't Sure
TTITLE21=I'm Just What You're Looking For
TTITLE22=I Thank Him
TTITLE23=Mr. Big Wheel
TTITLE24=Sittin' And Drinkin'
TTITLE25=I'm A Woman
TTITLE26=It's Nobody's Fault
TTITLE27=Next Door To The Blues
TTITLE28=Love Letters (Straight From My Heart)
TTITLE29=Ain't Never Seen So Much Rain Before
TTITLE30=Call His Name
EXTD=
EXTT0=
EXTT1=
EXTT2=
EXTT3=
EXTT4=
EXTT5=
EXTT6=
EXTT7=
EXTT8=
EXTT9=
EXTT10=
EXTT11=
EXTT12=
EXTT13=
EXTT14=
EXTT15=
EXTT16=
EXTT17=
EXTT18=
EXTT19=
EXTT20=
EXTT21=
EXTT22=
EXTT23=
EXTT24=
EXTT25=
EXTT26=
EXTT27=
EXTT28=
EXTT29=
EXTT30=
PLAYORDER=
